<mxfile host="app.diagrams.net" modified="2023-05-11T11:32:45.717Z" agent="Mozilla/5.0 (Windows NT 10.0; Win64; x64) AppleWebKit/537.36 (KHTML, like Gecko) Chrome/112.0.0.0 Safari/537.36" etag="ktTbe-UetuGzm_IE_MRG" version="21.2.9" type="device">
  <diagram name="第 1 页" id="3r9YaWaakME6yysbJrob">
    <mxGraphModel dx="1964" dy="661" grid="1" gridSize="10" guides="1" tooltips="1" connect="1" arrows="1" fold="1" page="1" pageScale="1" pageWidth="827" pageHeight="1169" math="0" shadow="0">
      <root>
        <mxCell id="0" />
        <mxCell id="1" parent="0" />
        <mxCell id="KlvYjBIEAxtw_dAIa6z8-1" value="" style="rounded=1;whiteSpace=wrap;html=1;arcSize=7;" parent="1" vertex="1">
          <mxGeometry x="100" y="500" width="440" height="230" as="geometry" />
        </mxCell>
        <mxCell id="KlvYjBIEAxtw_dAIa6z8-5" value="&lt;font style=&quot;font-size: 31px;&quot;&gt;σ&lt;/font&gt;" style="rounded=0;whiteSpace=wrap;html=1;fillColor=#66B2FF;fontColor=#000000;strokeColor=#006EAF;fontStyle=1" parent="1" vertex="1">
          <mxGeometry x="310" y="640" width="70" height="40" as="geometry" />
        </mxCell>
        <mxCell id="KlvYjBIEAxtw_dAIa6z8-6" value="&lt;font style=&quot;font-size: 31px;&quot;&gt;σ&lt;/font&gt;" style="rounded=0;whiteSpace=wrap;html=1;fillColor=#66B2FF;fontColor=#000000;strokeColor=#006EAF;fontStyle=1" parent="1" vertex="1">
          <mxGeometry x="176" y="640" width="70" height="40" as="geometry" />
        </mxCell>
        <mxCell id="KlvYjBIEAxtw_dAIa6z8-7" value="&lt;font style=&quot;font-size: 25px;&quot;&gt;&lt;b&gt;&lt;font style=&quot;font-size: 25px;&quot;&gt;tan&lt;/font&gt;&lt;font style=&quot;font-size: 25px;&quot;&gt;h&lt;/font&gt;&lt;/b&gt;&lt;/font&gt;" style="rounded=0;whiteSpace=wrap;html=1;fillColor=#66B2FF;fontColor=#000000;strokeColor=#006EAF;fontStyle=0" parent="1" vertex="1">
          <mxGeometry x="450" y="640" width="70" height="40" as="geometry" />
        </mxCell>
        <mxCell id="b85CPbSg9QXuK_ljiYh1-4" value="&lt;font style=&quot;font-size: 20px;&quot;&gt;&lt;b style=&quot;border-color: var(--border-color);&quot;&gt;H&lt;sub style=&quot;border-color: var(--border-color);&quot;&gt;t-1&lt;/sub&gt;&lt;/b&gt;&lt;/font&gt;" style="text;html=1;strokeColor=none;fillColor=none;align=center;verticalAlign=middle;whiteSpace=wrap;rounded=0;fontStyle=1;fontSize=17;" parent="1" vertex="1">
          <mxGeometry x="50" y="515.25" width="44" height="26" as="geometry" />
        </mxCell>
        <mxCell id="b85CPbSg9QXuK_ljiYh1-7" value="" style="endArrow=classic;html=1;rounded=0;entryX=0;entryY=0.5;entryDx=0;entryDy=0;" parent="1" target="b85CPbSg9QXuK_ljiYh1-8" edge="1">
          <mxGeometry width="50" height="50" relative="1" as="geometry">
            <mxPoint x="152" y="530" as="sourcePoint" />
            <mxPoint x="180" y="530" as="targetPoint" />
          </mxGeometry>
        </mxCell>
        <mxCell id="b85CPbSg9QXuK_ljiYh1-8" value="" style="ellipse;whiteSpace=wrap;html=1;aspect=fixed;fillColor=#66B2FF;" parent="1" vertex="1">
          <mxGeometry x="327.5" y="511.5" width="35" height="35" as="geometry" />
        </mxCell>
        <mxCell id="b85CPbSg9QXuK_ljiYh1-12" value="" style="ellipse;whiteSpace=wrap;html=1;aspect=fixed;" parent="1" vertex="1">
          <mxGeometry x="337.5" y="521.5" width="15" height="15" as="geometry" />
        </mxCell>
        <mxCell id="b85CPbSg9QXuK_ljiYh1-9" value="" style="shape=waypoint;sketch=0;fillStyle=solid;size=6;pointerEvents=1;points=[];fillColor=none;resizable=0;rotatable=0;perimeter=centerPerimeter;snapToPoint=1;" parent="1" vertex="1">
          <mxGeometry x="335" y="519" width="20" height="20" as="geometry" />
        </mxCell>
        <mxCell id="b85CPbSg9QXuK_ljiYh1-16" value="&lt;b style=&quot;font-size: 20px;&quot;&gt;H&lt;sub&gt;t-1&lt;/sub&gt;&lt;/b&gt;" style="text;html=1;strokeColor=none;fillColor=none;align=center;verticalAlign=middle;whiteSpace=wrap;rounded=0;" parent="1" vertex="1">
          <mxGeometry x="486.5" y="613" width="60" height="30" as="geometry" />
        </mxCell>
        <mxCell id="b85CPbSg9QXuK_ljiYh1-20" value="&lt;font style=&quot;font-size: 18px;&quot;&gt;~&lt;/font&gt;" style="text;html=1;strokeColor=none;fillColor=none;align=center;verticalAlign=middle;whiteSpace=wrap;rounded=0;" parent="1" vertex="1">
          <mxGeometry x="461.5" y="598" width="87" height="31" as="geometry" />
        </mxCell>
        <mxCell id="b85CPbSg9QXuK_ljiYh1-21" value="" style="endArrow=classic;html=1;rounded=0;entryX=0.5;entryY=1;entryDx=0;entryDy=0;" parent="1" target="KlvYjBIEAxtw_dAIa6z8-7" edge="1">
          <mxGeometry width="50" height="50" relative="1" as="geometry">
            <mxPoint x="150" y="720" as="sourcePoint" />
            <mxPoint x="485" y="750" as="targetPoint" />
            <Array as="points">
              <mxPoint x="200" y="720" />
              <mxPoint x="360" y="720" />
              <mxPoint x="485" y="720" />
            </Array>
          </mxGeometry>
        </mxCell>
        <mxCell id="b85CPbSg9QXuK_ljiYh1-23" value="&lt;b style=&quot;font-size: 20px;&quot;&gt;X&lt;sub&gt;t&lt;/sub&gt;&lt;/b&gt;" style="text;html=1;strokeColor=none;fillColor=none;align=center;verticalAlign=middle;whiteSpace=wrap;rounded=0;" parent="1" vertex="1">
          <mxGeometry x="54.5" y="703" width="35" height="33" as="geometry" />
        </mxCell>
        <mxCell id="b85CPbSg9QXuK_ljiYh1-24" value="&lt;font style=&quot;font-size: 22px;&quot;&gt;+&lt;/font&gt;" style="ellipse;whiteSpace=wrap;html=1;aspect=fixed;fillColor=#66B2FF;" parent="1" vertex="1">
          <mxGeometry x="467.5" y="511.5" width="35" height="35" as="geometry" />
        </mxCell>
        <mxCell id="b85CPbSg9QXuK_ljiYh1-25" value="" style="endArrow=classic;html=1;rounded=0;exitX=1;exitY=0.5;exitDx=0;exitDy=0;entryX=0;entryY=0.5;entryDx=0;entryDy=0;" parent="1" source="b85CPbSg9QXuK_ljiYh1-8" target="b85CPbSg9QXuK_ljiYh1-24" edge="1">
          <mxGeometry width="50" height="50" relative="1" as="geometry">
            <mxPoint x="260" y="650" as="sourcePoint" />
            <mxPoint x="310" y="600" as="targetPoint" />
          </mxGeometry>
        </mxCell>
        <mxCell id="b85CPbSg9QXuK_ljiYh1-26" value="" style="endArrow=classic;html=1;rounded=0;exitX=1;exitY=0.5;exitDx=0;exitDy=0;" parent="1" source="b85CPbSg9QXuK_ljiYh1-24" target="b85CPbSg9QXuK_ljiYh1-27" edge="1">
          <mxGeometry width="50" height="50" relative="1" as="geometry">
            <mxPoint x="260" y="650" as="sourcePoint" />
            <mxPoint x="580" y="530" as="targetPoint" />
          </mxGeometry>
        </mxCell>
        <mxCell id="b85CPbSg9QXuK_ljiYh1-27" value="&lt;b style=&quot;font-size: 20px;&quot;&gt;H&lt;sub&gt;t&lt;/sub&gt;&lt;/b&gt;" style="text;html=1;strokeColor=none;fillColor=none;align=center;verticalAlign=middle;whiteSpace=wrap;rounded=0;" parent="1" vertex="1">
          <mxGeometry x="559" y="517.25" width="21" height="22.75" as="geometry" />
        </mxCell>
        <mxCell id="b85CPbSg9QXuK_ljiYh1-28" value="" style="ellipse;whiteSpace=wrap;html=1;aspect=fixed;fillColor=#66B2FF;" parent="1" vertex="1">
          <mxGeometry x="467.5" y="570" width="35" height="35" as="geometry" />
        </mxCell>
        <mxCell id="b85CPbSg9QXuK_ljiYh1-29" value="" style="ellipse;whiteSpace=wrap;html=1;aspect=fixed;" parent="1" vertex="1">
          <mxGeometry x="477.5" y="580" width="15" height="15" as="geometry" />
        </mxCell>
        <mxCell id="b85CPbSg9QXuK_ljiYh1-30" value="" style="shape=waypoint;sketch=0;fillStyle=solid;size=6;pointerEvents=1;points=[];fillColor=none;resizable=0;rotatable=0;perimeter=centerPerimeter;snapToPoint=1;" parent="1" vertex="1">
          <mxGeometry x="475" y="578" width="20" height="20" as="geometry" />
        </mxCell>
        <mxCell id="b85CPbSg9QXuK_ljiYh1-31" value="" style="endArrow=classic;html=1;rounded=0;exitX=0.5;exitY=0;exitDx=0;exitDy=0;entryX=0.5;entryY=1;entryDx=0;entryDy=0;" parent="1" source="b85CPbSg9QXuK_ljiYh1-28" target="b85CPbSg9QXuK_ljiYh1-24" edge="1">
          <mxGeometry width="50" height="50" relative="1" as="geometry">
            <mxPoint x="260" y="650" as="sourcePoint" />
            <mxPoint x="483" y="550" as="targetPoint" />
          </mxGeometry>
        </mxCell>
        <mxCell id="b85CPbSg9QXuK_ljiYh1-32" value="" style="endArrow=classic;html=1;rounded=0;exitX=0.5;exitY=0;exitDx=0;exitDy=0;entryX=0.5;entryY=1;entryDx=0;entryDy=0;" parent="1" source="KlvYjBIEAxtw_dAIa6z8-7" target="b85CPbSg9QXuK_ljiYh1-28" edge="1">
          <mxGeometry width="50" height="50" relative="1" as="geometry">
            <mxPoint x="270" y="660" as="sourcePoint" />
            <mxPoint x="320" y="610" as="targetPoint" />
          </mxGeometry>
        </mxCell>
        <mxCell id="b85CPbSg9QXuK_ljiYh1-33" value="&lt;font style=&quot;font-size: 17px;&quot;&gt;1-&lt;/font&gt;" style="ellipse;whiteSpace=wrap;html=1;aspect=fixed;fillColor=#66B2FF;" parent="1" vertex="1">
          <mxGeometry x="396" y="570" width="35" height="35" as="geometry" />
        </mxCell>
        <mxCell id="b85CPbSg9QXuK_ljiYh1-34" value="" style="endArrow=classic;html=1;rounded=0;exitX=1;exitY=0.5;exitDx=0;exitDy=0;entryX=0;entryY=0.5;entryDx=0;entryDy=0;" parent="1" source="b85CPbSg9QXuK_ljiYh1-33" target="b85CPbSg9QXuK_ljiYh1-28" edge="1">
          <mxGeometry width="50" height="50" relative="1" as="geometry">
            <mxPoint x="280" y="670" as="sourcePoint" />
            <mxPoint x="330" y="620" as="targetPoint" />
          </mxGeometry>
        </mxCell>
        <mxCell id="b85CPbSg9QXuK_ljiYh1-35" value="" style="endArrow=classic;html=1;rounded=0;exitX=0.5;exitY=0;exitDx=0;exitDy=0;entryX=0.5;entryY=1;entryDx=0;entryDy=0;" parent="1" source="KlvYjBIEAxtw_dAIa6z8-5" target="b85CPbSg9QXuK_ljiYh1-8" edge="1">
          <mxGeometry width="50" height="50" relative="1" as="geometry">
            <mxPoint x="280" y="670" as="sourcePoint" />
            <mxPoint x="330" y="620" as="targetPoint" />
          </mxGeometry>
        </mxCell>
        <mxCell id="b85CPbSg9QXuK_ljiYh1-38" value="" style="endArrow=classic;html=1;rounded=0;exitX=0.453;exitY=0.008;exitDx=0;exitDy=0;exitPerimeter=0;entryX=1;entryY=0.5;entryDx=0;entryDy=0;" parent="1" source="KlvYjBIEAxtw_dAIa6z8-6" target="b85CPbSg9QXuK_ljiYh1-39" edge="1">
          <mxGeometry width="50" height="50" relative="1" as="geometry">
            <mxPoint x="130" y="745" as="sourcePoint" />
            <mxPoint x="230" y="615" as="targetPoint" />
            <Array as="points">
              <mxPoint x="208" y="593" />
            </Array>
          </mxGeometry>
        </mxCell>
        <mxCell id="b85CPbSg9QXuK_ljiYh1-39" value="" style="ellipse;whiteSpace=wrap;html=1;aspect=fixed;fillColor=#66B2FF;" parent="1" vertex="1">
          <mxGeometry x="134.5" y="575.5" width="35" height="35" as="geometry" />
        </mxCell>
        <mxCell id="b85CPbSg9QXuK_ljiYh1-40" value="" style="ellipse;whiteSpace=wrap;html=1;aspect=fixed;" parent="1" vertex="1">
          <mxGeometry x="144.5" y="585.5" width="15" height="15" as="geometry" />
        </mxCell>
        <mxCell id="b85CPbSg9QXuK_ljiYh1-41" value="" style="shape=waypoint;sketch=0;fillStyle=solid;size=6;pointerEvents=1;points=[];fillColor=none;resizable=0;rotatable=0;perimeter=centerPerimeter;snapToPoint=1;" parent="1" vertex="1">
          <mxGeometry x="142" y="583" width="20" height="20" as="geometry" />
        </mxCell>
        <mxCell id="b85CPbSg9QXuK_ljiYh1-42" value="" style="endArrow=classic;html=1;rounded=0;entryX=0.5;entryY=1;entryDx=0;entryDy=0;" parent="1" target="KlvYjBIEAxtw_dAIa6z8-5" edge="1">
          <mxGeometry width="50" height="50" relative="1" as="geometry">
            <mxPoint x="120" y="700" as="sourcePoint" />
            <mxPoint x="240" y="660" as="targetPoint" />
            <Array as="points">
              <mxPoint x="120" y="700" />
              <mxPoint x="345" y="700" />
            </Array>
          </mxGeometry>
        </mxCell>
        <mxCell id="b85CPbSg9QXuK_ljiYh1-44" value="" style="endArrow=classic;html=1;rounded=0;entryX=0;entryY=0.5;entryDx=0;entryDy=0;startArrow=oval;startFill=1;" parent="1" edge="1">
          <mxGeometry width="50" height="50" relative="1" as="geometry">
            <mxPoint x="345" y="588" as="sourcePoint" />
            <mxPoint x="396" y="587.81" as="targetPoint" />
          </mxGeometry>
        </mxCell>
        <mxCell id="b85CPbSg9QXuK_ljiYh1-46" value="&lt;b style=&quot;font-size: 20px;&quot;&gt;Z&lt;sub&gt;t&lt;/sub&gt;&lt;/b&gt;" style="text;html=1;strokeColor=none;fillColor=none;align=center;verticalAlign=middle;whiteSpace=wrap;rounded=0;" parent="1" vertex="1">
          <mxGeometry x="367.75" y="650" width="60" height="30" as="geometry" />
        </mxCell>
        <mxCell id="b85CPbSg9QXuK_ljiYh1-50" value="" style="endArrow=oval;html=1;rounded=0;endFill=1;" parent="1" edge="1">
          <mxGeometry width="50" height="50" relative="1" as="geometry">
            <mxPoint x="120" y="530" as="sourcePoint" />
            <mxPoint x="120" y="700" as="targetPoint" />
            <Array as="points" />
          </mxGeometry>
        </mxCell>
        <mxCell id="b85CPbSg9QXuK_ljiYh1-52" value="" style="endArrow=none;html=1;rounded=0;exitX=0.5;exitY=0;exitDx=0;exitDy=0;endFill=0;startArrow=classic;startFill=1;" parent="1" source="b85CPbSg9QXuK_ljiYh1-39" edge="1">
          <mxGeometry width="50" height="50" relative="1" as="geometry">
            <mxPoint x="140" y="660" as="sourcePoint" />
            <mxPoint x="152" y="530" as="targetPoint" />
          </mxGeometry>
        </mxCell>
        <mxCell id="b85CPbSg9QXuK_ljiYh1-53" value="" style="endArrow=oval;html=1;rounded=0;exitX=0.5;exitY=1;exitDx=0;exitDy=0;endFill=1;" parent="1" source="b85CPbSg9QXuK_ljiYh1-39" edge="1">
          <mxGeometry width="50" height="50" relative="1" as="geometry">
            <mxPoint x="200" y="710" as="sourcePoint" />
            <mxPoint x="152" y="720" as="targetPoint" />
          </mxGeometry>
        </mxCell>
        <mxCell id="b85CPbSg9QXuK_ljiYh1-70" value="" style="endArrow=none;html=1;rounded=0;endFill=0;" parent="1" edge="1">
          <mxGeometry width="50" height="50" relative="1" as="geometry">
            <mxPoint x="90" y="720" as="sourcePoint" />
            <mxPoint x="150" y="720" as="targetPoint" />
          </mxGeometry>
        </mxCell>
        <mxCell id="gWSoh0KENxB9iUJAKW8q-2" value="&lt;b style=&quot;font-size: 20px;&quot;&gt;R&lt;sub&gt;t&lt;/sub&gt;&lt;/b&gt;" style="text;html=1;strokeColor=none;fillColor=none;align=center;verticalAlign=middle;whiteSpace=wrap;rounded=0;" parent="1" vertex="1">
          <mxGeometry x="232.12" y="645" width="60" height="30" as="geometry" />
        </mxCell>
        <mxCell id="gWSoh0KENxB9iUJAKW8q-16" value="" style="endArrow=oval;html=1;rounded=0;entryDx=0;entryDy=0;endFill=1;" parent="1" edge="1">
          <mxGeometry width="50" height="50" relative="1" as="geometry">
            <mxPoint x="90" y="530" as="sourcePoint" />
            <mxPoint x="152" y="530" as="targetPoint" />
          </mxGeometry>
        </mxCell>
        <mxCell id="gWSoh0KENxB9iUJAKW8q-17" value="" style="endArrow=classic;html=1;rounded=0;" parent="1" target="KlvYjBIEAxtw_dAIa6z8-6" edge="1">
          <mxGeometry width="50" height="50" relative="1" as="geometry">
            <mxPoint x="210" y="700" as="sourcePoint" />
            <mxPoint x="320" y="620" as="targetPoint" />
          </mxGeometry>
        </mxCell>
        <mxCell id="gWSoh0KENxB9iUJAKW8q-21" value="" style="ellipse;whiteSpace=wrap;html=1;aspect=fixed;" parent="1" vertex="1">
          <mxGeometry x="148.5" y="697" width="6" height="6" as="geometry" />
        </mxCell>
        <mxCell id="TC52vZMKXn-c3aR4Fxmj-6" value="" style="endArrow=none;html=1;rounded=0;" parent="1" edge="1">
          <mxGeometry width="50" height="50" relative="1" as="geometry">
            <mxPoint x="120" y="720" as="sourcePoint" />
            <mxPoint x="120" y="700" as="targetPoint" />
          </mxGeometry>
        </mxCell>
      </root>
    </mxGraphModel>
  </diagram>
</mxfile>
